<svg xmlns="http://www.w3.org/2000/svg" viewBox="0 0 16 13.37"><defs><style>.cls-1{fill:#90b2cc;}</style></defs><g id="Layer_2" data-name="Layer 2"><g id="_03_home" data-name="03 home"><path class="cls-1" d="M16,10a4.65,4.65,0,0,0-2.25-4A3.48,3.48,0,1,0,8.5,1.49a3.15,3.15,0,0,0-1,0A3.48,3.48,0,1,0,2.25,6,4.65,4.65,0,0,0,0,10v1.94H3.36v1.45h9.28V11.92H16V10ZM11.36.86a2.62,2.62,0,0,1,0,5.24h-.08a2.64,2.64,0,0,0,.12-.4v0a.52.52,0,0,0,0-.11v0s0-.07,0-.1V5.34a.28.28,0,0,1,0-.09V5.16s0,0,0-.07V4.94h0V4.73a.53.53,0,0,0,0-.13v0A3.47,3.47,0,0,0,9.4,1.74a2.63,2.63,0,0,1,2-.88ZM7.09,2.47h0l.08,0,.06,0,0,0,.08,0A3.18,3.18,0,0,1,8,2.31a3.18,3.18,0,0,1,.62.07l.08,0,0,0,.06,0,.08,0h0a2.66,2.66,0,0,1,1.68,2v0s0,.06,0,.09v0a.28.28,0,0,0,0,.09v.15h0v.14s0,.07,0,.11v.16s0,.05,0,.08,0,.05,0,.07v0l0,.11v0l0,.06v0a.14.14,0,0,0,0,.06l0,.09,0,0,0,.08h0v0a.3.3,0,0,0,0,.08l0,0h0l-.05.08,0,0a.22.22,0,0,1-.05.08l0,0,0,.05a.1.1,0,0,0,0,0l0,0s0,0-.05,0l0,0-.05,0,0,0-.08.08-.05.05,0,0-.06.05,0,0L9.58,7l0,0A2.64,2.64,0,0,1,6.44,7l0,0L6.35,7l0,0-.06-.05,0,0-.05-.05L6.1,6.73l0,0s0,0-.05,0l0,0,0,0,0,0a.1.1,0,0,0,0,0l0-.05,0,0a.22.22,0,0,1-.05-.08l0,0,0-.08,0,0a.3.3,0,0,0,0-.08v0h0a.3.3,0,0,0,0-.08v0l0-.09v0l0,0,0-.06a.31.31,0,0,1,0-.08l0-.06V5.44s0-.06,0-.09V5.19s0-.07,0-.11V4.77a.28.28,0,0,0,0-.09v0s0-.06,0-.1v0a2.66,2.66,0,0,1,1.68-2ZM2,3.48A2.62,2.62,0,0,1,6.6,1.74,3.47,3.47,0,0,0,4.54,4.57v0a.66.66,0,0,0,0,.14V5.1s0,0,0,.06v.1a.19.19,0,0,1,0,.08.17.17,0,0,1,0,.07s0,.06,0,.09v.06a.43.43,0,0,0,0,.11v0a2.66,2.66,0,0,0,.1.38v0H4.64A2.62,2.62,0,0,1,2,3.48ZM4.08,9l0,0L4,9.1l0,.05,0,.09,0,.06,0,.09,0,.06-.05.09,0,.05a.61.61,0,0,0-.05.12v0l-.06.15v0a.56.56,0,0,0,0,.12l0,.06,0,.1v.06l0,.1v.06a.36.36,0,0,0,0,.1l0,.06s0,.07,0,.11v.05a.88.88,0,0,0,0,.16h0c0,.05,0,.1,0,.15H.86V10A3.77,3.77,0,0,1,3,6.56,3.37,3.37,0,0,0,4.64,7a2.92,2.92,0,0,0,.51,0L5.23,7l0,0a.39.39,0,0,0,.08.1l0,0a.39.39,0,0,0,.08.1l0,0,.08.08,0,0a.41.41,0,0,0-.11.07h0l-.11.07,0,0-.09.07,0,0-.12.09,0,0L5,7.92l0,0L4.85,8l0,0-.1.11,0,0-.08.09,0,0-.09.1v0l-.1.11,0,0-.07.09,0,0-.09.13L4.08,9Zm.13,3.55V11.43s0-.09,0-.14v0a.31.31,0,0,1,0-.1v-.06s0-.05,0-.08V11a.22.22,0,0,1,0-.08v-.06s0-.05,0-.08,0,0,0-.06,0-.05,0-.07v-.07a.64.64,0,0,0,0-.07s0,0,0-.06,0-.05,0-.07,0,0,0-.06a.64.64,0,0,1,0-.07.14.14,0,0,0,0-.06l0-.07,0-.06,0-.07,0-.06,0-.06,0-.06,0-.06,0-.06,0-.06,0-.06,0-.06,0-.06,0-.06,0-.05,0-.06,0-.05a.21.21,0,0,0,0-.06l0,0,0-.05,0-.06,0-.05.05-.05,0,0,.05-.05,0,0,0,0,0-.05,0,0,.06-.05,0,0,0-.05.06,0,.06,0,0,0,.06,0,.06,0,.06,0,.06,0,.06,0,.06,0,.07,0,.06,0,0,0A3.44,3.44,0,0,0,9.61,8l.05,0,.07,0,.06,0,.06,0,.06,0,.06,0,.06,0,.06,0,.06,0,0,0,.06,0,.06,0,0,.05.05,0,.06,0,0,0,.05.05.05,0,0,0,.05.05,0,0,.05.05,0,.05.05.06,0,.05.05,0a.21.21,0,0,0,0,.06l0,.05,0,.06,0,.05,0,.06,0,.06,0,.06,0,.06,0,.06,0,.06,0,.06,0,.06,0,.06,0,.06,0,.07,0,.06,0,.07a.14.14,0,0,0,0,.06.64.64,0,0,1,0,.07l0,.06s0,.05,0,.07l0,.06a.14.14,0,0,0,0,.07s0,.05,0,.07,0,.05,0,.07v.06s0,0,0,.08a.13.13,0,0,1,0,.06.22.22,0,0,1,0,.08.13.13,0,0,1,0,.06s0,.06,0,.08v.06a.31.31,0,0,1,0,.1v0c0,.05,0,.1,0,.14v1.08Zm8.42-1.45c0-.1,0-.21,0-.31V10.7a.43.43,0,0,1,0-.11l0-.06a.36.36,0,0,0,0-.1v-.06l0-.1s0,0,0-.06l0-.1,0-.06a.56.56,0,0,0,0-.12v0l-.06-.16v0a.61.61,0,0,0-.05-.12l0-.05-.05-.09,0-.06-.05-.09,0-.06L12,9.15l0-.05L12,9l0,0-.09-.14-.09-.13,0,0-.07-.09,0,0-.1-.11v0l-.09-.1,0,0-.08-.09,0,0-.1-.11,0,0L11.06,8l0,0-.09-.08,0,0-.12-.09,0,0-.09-.07,0,0-.11-.07h0a.41.41,0,0,0-.11-.07l0,0,.08-.08,0,0a.39.39,0,0,0,.08-.1l0,0a.39.39,0,0,0,.08-.1l0,0a1,1,0,0,1,.08-.11,4.36,4.36,0,0,0,.51,0A3.37,3.37,0,0,0,13,6.56,3.79,3.79,0,0,1,15.14,10v1.08Z"/></g></g></svg>