<?xml version="1.0" encoding="utf-8"?>
<!-- Generator: Adobe Illustrator 25.0.0, SVG Export Plug-In . SVG Version: 6.00 Build 0)  -->
<svg version="1.1" id="Layer_1" xmlns="http://www.w3.org/2000/svg" xmlns:xlink="http://www.w3.org/1999/xlink" x="0px" y="0px"
	 viewBox="0 0 500 500" style="enable-background:new 0 0 500 500;" xml:space="preserve">
<style type="text/css">
	.st0{fill:url(#SVGID_1_);}
	.st1{fill:#0E3151;}
	.st2{fill:url(#SVGID_2_);}
	.st3{fill:url(#SVGID_3_);}
</style>
<g>
	<linearGradient id="SVGID_1_" gradientUnits="userSpaceOnUse" x1="2.728484e-12" y1="227.2975" x2="500" y2="227.2975">
		<stop  offset="0" style="stop-color:#016691"/>
		<stop  offset="0.5" style="stop-color:#0E3151;stop-opacity:0.97"/>
		<stop  offset="1" style="stop-color:#016691"/>
	</linearGradient>
	<path class="st0" d="M250.21,281.37h-79.63c0,0-97.24,0-104.09,0c-5.8,0-10.67-2.79-15.37-5.97
		c-11.34-7.68-20.32-20.36-27.68-31.67c-7.68-11.81-14.21-24.31-21.16-36.55c-0.9-1.59-1.82-3.22-2.16-5.01
		c-1.04-5.55,4.56-7.64,8.94-8.59c24.92-5.42,49.85-10.84,74.77-16.26c8.7-1.89,17.47-3.79,26.37-4.07
		c16.99-0.53,32.88,7.88,47.94,14.9c5.15,2.4,10.2,4.38,15.41,6.52c9.05,3.72,17.83,8.11,26.68,12.26
		c6.64,3.11,25.3,7.05,30.27,7.88s18.87,0,18.87,0h1.24c0,0,13.89,0.83,18.87,0s23.64-4.77,30.27-7.88
		c8.86-4.15,17.63-8.54,26.68-12.26c5.21-2.14,10.26-4.12,15.41-6.52c15.06-7.01,30.94-15.42,47.94-14.9
		c8.9,0.28,17.67,2.18,26.37,4.07c24.92,5.42,49.85,10.84,74.77,16.26c4.37,0.95,9.98,3.04,8.94,8.59c-0.34,1.8-1.25,3.42-2.16,5.01
		c-6.96,12.24-13.48,24.74-21.16,36.55c-7.36,11.31-16.34,23.99-27.68,31.67c-4.7,3.18-9.57,5.97-15.37,5.97
		c-6.84,0-104.09,0-104.09,0h-79.63"/>
	<path class="st1" d="M248.62,215.43c0,0,16.03-1.11,23.22-2.76c7.19-1.66,17.69-3.87,35.66-11.89
		c17.71-7.9,35.61-15.16,53.43-22.82c8.09-3.48,16.8-6.3,25.69-6.32c8.27-0.02,16.47,2.93,24.5,4.65
		c12.22,2.62,24.42,5.28,36.63,7.96c3.64,0.8,7.29,1.54,10.91,2.39c2.7,0.64,3.61,0.71,2.82,3.82c-1,3.94-2.82,7.87-4.49,11.56
		c-4.41,9.72-10.2,18.81-17.14,26.92c-6.4,7.49-14.95,16.35-25.09,18.28c-5.81,1.11-19.63,0.83-26.54,0
		c-21.57-2.59-43.78-5.76-65.52-5.37c-16.75,0.3-31.43,4.24-46.64,10.93c-9.15,4.03-18.3,8.07-27.44,12.13h-0.55
		c-9.14-4.05-18.29-8.1-27.44-12.13c-15.21-6.69-29.89-10.64-46.64-10.93c-21.74-0.39-43.95,2.78-65.52,5.37
		c-6.91,0.83-20.74,1.11-26.54,0c-10.15-1.93-18.69-10.79-25.09-18.28c-6.94-8.11-12.72-17.21-17.14-26.92
		c-1.68-3.69-3.5-7.62-4.49-11.56c-0.79-3.11,0.12-3.18,2.82-3.82c3.62-0.86,7.28-1.6,10.91-2.39c12.2-2.67,24.41-5.34,36.63-7.96
		c11.25-2.41,21.91-6.23,33.41-3.7c11.06,2.43,21.44,7.18,31.56,12.15c12.41,6.1,25.95,10.36,38.66,16.03
		c17.97,8.02,28.48,10.23,35.66,11.89c7.19,1.66,23.22,2.76,23.22,2.76"/>
	<radialGradient id="SVGID_2_" cx="248.3412" cy="305.4299" r="67.2343" gradientUnits="userSpaceOnUse">
		<stop  offset="0" style="stop-color:#13385A"/>
		<stop  offset="1" style="stop-color:#0E3151"/>
	</radialGradient>
	<path class="st2" d="M248.34,247.02l-19.35,29.86l-38.43,54.19c0,0-2.49,3.59,0,7.19c4.03,5.82,12.32,10.76,18.27,14.34
		c7.95,4.79,18.21,10.03,27.62,10.82c19.03,1.59,34.96-0.92,51.39-10.82c5.95-3.58,14.24-8.52,18.27-14.34c2.49-3.59,0-7.19,0-7.19
		l-38.43-54.19L248.34,247.02"/>
	<linearGradient id="SVGID_3_" gradientUnits="userSpaceOnUse" x1="13.015" y1="243.9753" x2="487.7057" y2="243.9753">
		<stop  offset="0" style="stop-color:#0E3151"/>
		<stop  offset="0.0326" style="stop-color:#0C395A;stop-opacity:0.998"/>
		<stop  offset="0.1342" style="stop-color:#074D72;stop-opacity:0.992"/>
		<stop  offset="0.2417" style="stop-color:#045B84;stop-opacity:0.9855"/>
		<stop  offset="0.3582" style="stop-color:#02638E;stop-opacity:0.9785"/>
		<stop  offset="0.5" style="stop-color:#016691;stop-opacity:0.97"/>
		<stop  offset="0.623" style="stop-color:#02638D;stop-opacity:0.9774"/>
		<stop  offset="0.7497" style="stop-color:#045880;stop-opacity:0.985"/>
		<stop  offset="0.8777" style="stop-color:#09476C;stop-opacity:0.9927"/>
		<stop  offset="1" style="stop-color:#0E3151"/>
	</linearGradient>
	<path class="st3" d="M249.8,215.09c0,0-17.28-1.5-17.87-1.38c-0.59,0.12-17.51-3.07-26.83-6.58c-9.32-3.51-40.88-17.11-40.88-17.11
		l-32.78-13.81c0,0-13.7-4.78-21.94-4.78c0.88,0,2.41,1.12,3.19,1.49c2.16,1,4.28,2.12,6.47,3.02c4.59,1.89,8.97,4.21,13.2,6.8
		c8.52,5.21,16.44,11.33,24.98,16.52c0.94,0.57,1.74,1.27,2.67,1.86c41.57,26.51,66.02,66.54,83.12,111.66
		c0.32,0.85,0.65,1.71,1.22,2.42c0.7,0.88,1.97,1.51,3.12,1.26h1.19c1.15,0.25,2.41-0.37,3.12-1.26c0.56-0.71,0.89-1.57,1.22-2.42
		c8.08-21.32,17.75-42.19,30.81-60.96c14.32-20.58,32.58-35.59,52.32-50.71c0.93-0.59,1.73-1.29,2.67-1.86
		c8.53-5.19,16.46-11.31,24.98-16.52c4.23-2.59,8.61-4.91,13.2-6.8c2.19-0.9,4.32-2.02,6.47-3.02c0.78-0.36,2.31-1.49,3.19-1.49
		c-8.24,0-21.94,4.78-21.94,4.78l-32.78,13.81c0,0-31.56,13.6-40.88,17.11c-9.32,3.51-26.24,6.7-26.83,6.58s-17.87,1.38-17.87,1.38"
		/>
	<path class="st1" d="M248.62,136.16c0,0-1.66,0.55-3.18,2.9c-4.07,6.29-5.67,14.04-7.4,21.19c-0.17,0.71-0.35,1.43-0.68,2.09
		c-0.61,1.23-1.71,2.13-2.73,3.05c-7.14,6.42-11.5,13.89-11.74,23.62c-0.11,4.45,0.33,8.91,1.15,13.28
		c1.08,5.74,2.84,11.36,5.21,16.69c1.88,4.23,3.25,8.99,5.68,12.96c2.88,4.71,6.09,9.33,9.35,13.77c1.06,1.44,2.57,2.76,4.35,2.78
		h-0.03c1.79-0.03,3.3-1.34,4.35-2.78c3.26-4.44,6.47-9.06,9.35-13.77c2.43-3.98,3.79-8.73,5.68-12.96
		c2.38-5.34,4.13-10.95,5.21-16.69c0.82-4.37,1.26-8.83,1.15-13.28c-0.23-9.72-4.6-17.19-11.74-23.62
		c-1.02-0.92-2.12-1.82-2.73-3.05c-0.33-0.66-0.5-1.38-0.68-2.09c-1.73-7.14-3.33-14.9-7.4-21.19
		C250.28,136.71,248.62,136.16,248.62,136.16"/>
</g>
</svg>
