<svg xmlns="http://www.w3.org/2000/svg" viewBox="0 0 43.48 57.23"><defs><style>.cls-1{fill:#196bab;}.cls-2{fill:#0e3c60;}.cls-3{fill:#1ca1fa;}</style></defs><g id="Layer_2" data-name="Layer 2"><g id="_06_uploads" data-name="06 uploads"><path class="cls-1" d="M33.79,5.22a5,5,0,0,0,4.85,5.22h4.84L33.79,0Z"/><path class="cls-2" d="M0,6.33V50.9a6.32,6.32,0,0,0,6.32,6.33H37.16a6.33,6.33,0,0,0,6.32-6.33V11.7H38A5.68,5.68,0,0,1,32.5,5.85V0H6.33A6.32,6.32,0,0,0,0,6.33Z"/><path class="cls-3" d="M14.27,30a6,6,0,0,1,2.92.09V19.18a1.56,1.56,0,0,1,1.25-1.54l13.14-2.78h.16l.17,0H32a1,1,0,0,1,.24,0l.14,0,.15,0a.71.71,0,0,1,.15.08l.12.06.13.1.1.09.1.12.1.11c0,.06.06.11.09.16l.06.11a1.83,1.83,0,0,1,.08.25s0,0,0,0a.91.91,0,0,1,0,.17.77.77,0,0,1,0,.15V30.81c0,.09,0,.18,0,.28,0,2-1.8,3.93-4.28,4.46-2.8.59-5.48-.8-6-3.11s1.39-4.67,4.19-5.27a6.13,6.13,0,0,1,2.93.1V18.35l-10,2.1V33.59c0,.08,0,.18,0,.27,0,2-1.79,3.93-4.27,4.46-2.81.59-5.48-.79-6-3.1s1.39-4.67,4.19-5.27Z"/><path d="M22.94,44h-.35c-.2,0-.35.27-.35.59v.53c0,.32.15.59.34.59h.35a1.34,1.34,0,0,0,.79-.21.76.76,0,0,0,.31-.64.77.77,0,0,0-.29-.65,1.33,1.33,0,0,0-.8-.21Z"/><path class="cls-3" d="M9.5,41.55h2.32l2.27,5.58,2.24-5.58h2.31v8.06h-2V44.77l-1.8,4.84H13.28l-1.81-4.85v4.85h-2Z"/><path class="cls-3" d="M23.77,48.12H19.9V46.53l3.64-5.19h2.19v5.08h.94v1.7h-.94v1.49h-2Zm.13-1.7V43.5L22,46.42Z"/><path class="cls-3" d="M32.86,48.19h-3l-.49,1.42H27.31l2.92-8.06H32.5l2.92,8.06H33.34Zm-1.51-4.47-1,3h2Z"/></g></g></svg>