<svg xmlns="http://www.w3.org/2000/svg" viewBox="0 0 23.56 27.54"><defs><style>.cls-1{fill:#90b2cc;}</style></defs><g id="Layer_2" data-name="Layer 2"><g id="_03_home" data-name="03 home"><path class="cls-1" d="M16.15,27.54a7.42,7.42,0,1,1,7.41-7.42A7.43,7.43,0,0,1,16.15,27.54Zm0-13.68a6.26,6.26,0,1,0,6.26,6.26A6.27,6.27,0,0,0,16.15,13.86Z"/><path class="cls-1" d="M19.2,23.61a.43.43,0,0,1-.31-.13l-3.05-3.05a.44.44,0,0,1-.13-.31V15.33a.44.44,0,0,1,.44-.44.44.44,0,0,1,.43.44v4.61l2.93,2.93a.44.44,0,0,1-.31.74Z"/><path class="cls-1" d="M7.89,19H2.41a.8.8,0,0,1-.8-.8V7.56H19v4.09a10.68,10.68,0,0,1,1.61.33V4a2.41,2.41,0,0,0-2.41-2.41h-1V0H15.59V1.61H5V0H3.38V1.61h-1A2.41,2.41,0,0,0,0,4V18.17a2.41,2.41,0,0,0,2.41,2.41H7.56A10.68,10.68,0,0,1,7.89,19ZM1.61,4a.8.8,0,0,1,.8-.8h1v1.6H5V3.22H15.59v1.6H17.2V3.22h1A.8.8,0,0,1,19,4V6H1.61Z"/></g></g></svg>