<svg xmlns="http://www.w3.org/2000/svg" viewBox="0 0 16 14.06"><defs><style>.cls-1{fill:#333;}</style></defs><g id="Layer_2" data-name="Layer 2"><g id="_03_home" data-name="03 home"><path class="cls-1" d="M.47,12.19H2.81v1.4a.47.47,0,0,0,.47.47H15.53a.47.47,0,0,0,.47-.47V1.41a.47.47,0,0,0-.47-.47H13.19V.47a.47.47,0,1,0-.94,0V.94H9.88V.47a.47.47,0,1,0-.94,0V.94H6.59V.47a.47.47,0,1,0-.93,0V.94H3.28a.47.47,0,0,0-.47.47V4.22c0,3.45-1.43,6.11-2.64,7.14a.47.47,0,0,0-.14.52.48.48,0,0,0,.44.31Zm14.59.93H3.75v-.93h9a.48.48,0,0,0,.3-.11,8.63,8.63,0,0,0,2-3ZM3.75,1.88H5.66v.46a.47.47,0,1,0,.93,0V1.88H8.94v.46a.47.47,0,1,0,.94,0V1.88h2.37v.46a.47.47,0,1,0,.94,0V1.88h1.87V3.75H3.75Zm0,2.81H15.05a9.81,9.81,0,0,1-2.51,6.56h-11a11.31,11.31,0,0,0,2.2-6.56Z"/></g></g></svg>